<?xml version="1.0" encoding="UTF-8" standalone="no"?>
<!DOCTYPE svg PUBLIC "-//W3C//DTD SVG 1.1//EN"
 "http://www.w3.org/Graphics/SVG/1.1/DTD/svg11.dtd">
<!-- Generated by graphviz version 2.38.0 (20140413.2041)
 -->
<!-- Title: %3 Pages: 1 -->
<svg width="2046pt" height="652pt"
 viewBox="0.00 0.00 2046.01 652.00" xmlns="http://www.w3.org/2000/svg" xmlns:xlink="http://www.w3.org/1999/xlink">
<g id="graph0" class="graph" transform="scale(1 1) rotate(0) translate(4 648)">
<title>%3</title>
<polygon fill="white" stroke="none" points="-4,4 -4,-648 2042.01,-648 2042.01,4 -4,4"/>
<g id="clust1" class="cluster"><title>clusterTools</title>
<polygon fill="none" stroke="black" points="535,-8 535,-132 1154,-132 1154,-8 535,-8"/>
</g>
<g id="clust4" class="cluster"><title>clusterJson</title>
<polygon fill="none" stroke="black" points="620,-152 620,-204 959,-204 959,-152 620,-152"/>
</g>
<g id="clust5" class="cluster"><title>clusterSdk</title>
<polygon fill="none" stroke="black" points="793,-224 793,-420 1271,-420 1271,-224 793,-224"/>
</g>
<g id="clust3" class="cluster"><title>clusterRuntime</title>
<polygon fill="none" stroke="black" points="180,-80 180,-276 527,-276 527,-80 180,-80"/>
</g>
<g id="clust2" class="cluster"><title>clusterCompilers</title>
<polygon fill="none" stroke="black" points="1091,-152 1091,-204 1259,-204 1259,-152 1091,-152"/>
</g>
<g id="clust6" class="cluster"><title>clusterWeb</title>
<polygon fill="none" stroke="black" points="1577,-224 1577,-492 1885,-492 1885,-224 1577,-224"/>
</g>
<g id="clust7" class="cluster"><title>clusterCoreSdk</title>
<polygon fill="none" stroke="black" points="1141,-440 1141,-636 1243,-636 1243,-440 1141,-440"/>
</g>
<!-- sourcelink -->
<g id="node1" class="node"><title>sourcelink</title>
<ellipse fill="#8470ff" stroke="#8470ff" cx="960" cy="-34" rx="48.1917" ry="18"/>
<text text-anchor="middle" x="960" y="-30.3" font-family="Times New Roman,serif" font-size="14.00">sourcelink</text>
</g>
<!-- arcade -->
<g id="node6" class="node"><title>arcade</title>
<ellipse fill="#8470ff" stroke="#8470ff" cx="1014" cy="-106" rx="34.394" ry="18"/>
<text text-anchor="middle" x="1014" y="-102.3" font-family="Times New Roman,serif" font-size="14.00">arcade</text>
</g>
<!-- sourcelink&#45;&gt;arcade -->
<g id="edge1" class="edge"><title>sourcelink&#45;&gt;arcade</title>
<path fill="none" stroke="black" d="M972.797,-51.589C979.552,-60.3446 987.963,-71.249 995.422,-80.918"/>
<polygon fill="black" stroke="black" points="992.787,-83.2319 1001.67,-89.0119 998.329,-78.9562 992.787,-83.2319"/>
</g>
<!-- xliff&#45;tasks -->
<g id="node2" class="node"><title>xliff&#45;tasks</title>
<ellipse fill="#8470ff" stroke="#8470ff" cx="848" cy="-34" rx="46.2923" ry="18"/>
<text text-anchor="middle" x="848" y="-30.3" font-family="Times New Roman,serif" font-size="14.00">xliff&#45;tasks</text>
</g>
<!-- roslyn -->
<g id="node7" class="node"><title>roslyn</title>
<ellipse fill="#ff7f00" stroke="#ff7f00" cx="1132" cy="-178" rx="33.2948" ry="18"/>
<text text-anchor="middle" x="1132" y="-174.3" font-family="Times New Roman,serif" font-size="14.00">roslyn</text>
</g>
<!-- xliff&#45;tasks&#45;&gt;roslyn -->
<g id="edge73" class="edge"><title>xliff&#45;tasks&#45;&gt;roslyn</title>
<path fill="none" stroke="black" d="M882.15,-46.2503C889.013,-48.3143 896.204,-50.3383 903,-52 970.576,-68.5236 997.556,-43.8621 1057,-80 1085.01,-97.0294 1106.46,-128.672 1119.11,-151.184"/>
<polygon fill="black" stroke="black" points="1116.15,-153.071 1123.98,-160.204 1122.31,-149.743 1116.15,-153.071"/>
</g>
<!-- fsharp -->
<g id="node8" class="node"><title>fsharp</title>
<ellipse fill="#ff7f00" stroke="#ff7f00" cx="1217" cy="-178" rx="33.5952" ry="18"/>
<text text-anchor="middle" x="1217" y="-174.3" font-family="Times New Roman,serif" font-size="14.00">fsharp</text>
</g>
<!-- xliff&#45;tasks&#45;&gt;fsharp -->
<g id="edge64" class="edge"><title>xliff&#45;tasks&#45;&gt;fsharp</title>
<path fill="none" stroke="black" d="M881.809,-46.3594C888.764,-48.4386 896.077,-50.4407 903,-52 987.986,-71.1437 1017.16,-45.1494 1097,-80 1136.7,-97.3309 1174.13,-131.475 1196.32,-154.273"/>
<polygon fill="black" stroke="black" points="1193.8,-156.708 1203.24,-161.529 1198.87,-151.877 1193.8,-156.708"/>
</g>
<!-- sdk -->
<g id="node18" class="node"><title>sdk</title>
<ellipse fill="#ffe7ba" stroke="#ffe7ba" cx="828" cy="-394" rx="27" ry="18"/>
<text text-anchor="middle" x="828" y="-390.3" font-family="Times New Roman,serif" font-size="14.00">sdk</text>
</g>
<!-- xliff&#45;tasks&#45;&gt;sdk -->
<g id="edge75" class="edge"><title>xliff&#45;tasks&#45;&gt;sdk</title>
<path fill="none" stroke="black" d="M814.885,-46.7209C807.748,-48.8266 800.188,-50.7472 793,-52 759.197,-57.8918 199.707,-55.1931 176,-80 115.816,-142.978 121.136,-208.337 176,-276 254.121,-372.345 663.523,-389.397 790.445,-392.377"/>
<polygon fill="black" stroke="black" points="790.733,-395.884 800.807,-392.604 790.886,-388.886 790.733,-395.884"/>
</g>
<!-- cli -->
<g id="node31" class="node"><title>cli</title>
<ellipse fill="gold" stroke="gold" cx="1176" cy="-466" rx="27" ry="18"/>
<text text-anchor="middle" x="1176" y="-462.3" font-family="Times New Roman,serif" font-size="14.00">cli</text>
</g>
<!-- xliff&#45;tasks&#45;&gt;cli -->
<g id="edge30" class="edge"><title>xliff&#45;tasks&#45;&gt;cli</title>
<path fill="none" stroke="black" d="M814.887,-46.7353C807.751,-48.8401 800.189,-50.7567 793,-52 721.221,-64.4136 191.568,-30.6361 138,-80 97.3663,-117.445 114.858,-150.584 129,-204 157.275,-310.794 157.871,-362.172 252,-420 328.493,-466.994 976.223,-466.226 1139,-465.278"/>
<polygon fill="black" stroke="black" points="1139.03,-468.778 1149.01,-465.216 1138.99,-461.779 1139.03,-468.778"/>
</g>
<!-- linker -->
<g id="node3" class="node"><title>linker</title>
<ellipse fill="#8470ff" stroke="#8470ff" cx="753" cy="-34" rx="30.5947" ry="18"/>
<text text-anchor="middle" x="753" y="-30.3" font-family="Times New Roman,serif" font-size="14.00">linker</text>
</g>
<!-- coreclr -->
<g id="node9" class="node"><title>coreclr</title>
<ellipse fill="#c0ff3e" stroke="#c0ff3e" cx="327" cy="-106" rx="36.2938" ry="18"/>
<text text-anchor="middle" x="327" y="-102.3" font-family="Times New Roman,serif" font-size="14.00">coreclr</text>
</g>
<!-- linker&#45;&gt;coreclr -->
<g id="edge51" class="edge"><title>linker&#45;&gt;coreclr</title>
<path fill="none" stroke="black" d="M730.345,-46.3642C725.093,-48.5764 719.444,-50.6309 714,-52 566.097,-89.1956 517.947,-35.7481 372,-80 366.892,-81.5486 361.719,-83.7352 356.788,-86.1778"/>
<polygon fill="black" stroke="black" points="354.825,-83.2603 347.687,-91.0901 358.15,-89.4204 354.825,-83.2603"/>
</g>
<!-- coreclr&#45;portable -->
<g id="node10" class="node"><title>coreclr&#45;portable</title>
<ellipse fill="#c0ff3e" stroke="#c0ff3e" cx="450" cy="-106" rx="68.7879" ry="18"/>
<text text-anchor="middle" x="450" y="-102.3" font-family="Times New Roman,serif" font-size="14.00">coreclr&#45;portable</text>
</g>
<!-- linker&#45;&gt;coreclr&#45;portable -->
<g id="edge49" class="edge"><title>linker&#45;&gt;coreclr&#45;portable</title>
<path fill="none" stroke="black" d="M730.269,-46.0823C725.021,-48.3092 719.393,-50.4409 714,-52 634.957,-74.8528 611.195,-61.595 531,-80 520.782,-82.3451 509.979,-85.3208 499.707,-88.3946"/>
<polygon fill="black" stroke="black" points="498.593,-85.0755 490.059,-91.3543 500.646,-91.7677 498.593,-85.0755"/>
</g>
<!-- corefx -->
<g id="node11" class="node"><title>corefx</title>
<ellipse fill="#c0ff3e" stroke="#c0ff3e" cx="455" cy="-178" rx="34.394" ry="18"/>
<text text-anchor="middle" x="455" y="-174.3" font-family="Times New Roman,serif" font-size="14.00">corefx</text>
</g>
<!-- linker&#45;&gt;corefx -->
<g id="edge58" class="edge"><title>linker&#45;&gt;corefx</title>
<path fill="none" stroke="black" d="M730.374,-46.4831C725.12,-48.6892 719.463,-50.7111 714,-52 656.065,-65.6677 219.976,-36.823 179,-80 163.091,-96.7636 163.441,-114.911 179,-132 211.007,-167.153 345.773,-140.898 392,-152 401.681,-154.325 411.844,-157.844 421.114,-161.514"/>
<polygon fill="black" stroke="black" points="419.814,-164.763 430.392,-165.349 422.488,-158.294 419.814,-164.763"/>
</g>
<!-- corefx&#45;portable -->
<g id="node12" class="node"><title>corefx&#45;portable</title>
<ellipse fill="#c0ff3e" stroke="#c0ff3e" cx="316" cy="-178" rx="66.8882" ry="18"/>
<text text-anchor="middle" x="316" y="-174.3" font-family="Times New Roman,serif" font-size="14.00">corefx&#45;portable</text>
</g>
<!-- linker&#45;&gt;corefx&#45;portable -->
<g id="edge54" class="edge"><title>linker&#45;&gt;corefx&#45;portable</title>
<path fill="none" stroke="black" d="M730.375,-46.4889C725.122,-48.6947 719.464,-50.715 714,-52 654.435,-66.0075 206.154,-35.6457 164,-80 148.079,-96.7523 150.171,-113.483 164,-132 181.751,-155.768 211.502,-167.499 240,-173.115"/>
<polygon fill="black" stroke="black" points="239.554,-176.59 250.006,-174.856 240.754,-169.694 239.554,-176.59"/>
</g>
<!-- application&#45;insights -->
<g id="node4" class="node"><title>application&#45;insights</title>
<ellipse fill="#8470ff" stroke="#8470ff" cx="624" cy="-34" rx="80.6858" ry="18"/>
<text text-anchor="middle" x="624" y="-30.3" font-family="Times New Roman,serif" font-size="14.00">application&#45;insights</text>
</g>
<!-- application&#45;insights&#45;&gt;cli -->
<g id="edge17" class="edge"><title>application&#45;insights&#45;&gt;cli</title>
<path fill="none" stroke="black" d="M544.019,-36.5738C375.641,-42.059 0,-66.6609 0,-177 0,-177 0,-177 0,-323 0,-419.002 100.12,-395.716 193,-420 376.584,-467.999 981.756,-466.58 1138.61,-465.366"/>
<polygon fill="black" stroke="black" points="1138.73,-468.865 1148.7,-465.283 1138.67,-461.865 1138.73,-468.865"/>
</g>
<!-- netcorecli&#45;fsc -->
<g id="node5" class="node"><title>netcorecli&#45;fsc</title>
<ellipse fill="#8470ff" stroke="#8470ff" cx="1086" cy="-34" rx="59.5901" ry="18"/>
<text text-anchor="middle" x="1086" y="-30.3" font-family="Times New Roman,serif" font-size="14.00">netcorecli&#45;fsc</text>
</g>
<!-- toolset -->
<g id="node32" class="node"><title>toolset</title>
<ellipse fill="gold" stroke="gold" cx="1200" cy="-538" rx="35.194" ry="18"/>
<text text-anchor="middle" x="1200" y="-534.3" font-family="Times New Roman,serif" font-size="14.00">toolset</text>
</g>
<!-- netcorecli&#45;fsc&#45;&gt;toolset -->
<g id="edge87" class="edge"><title>netcorecli&#45;fsc&#45;&gt;toolset</title>
<path fill="none" stroke="black" d="M1145.89,-35.9562C1274.14,-39.8208 1583.05,-58.9043 1821,-152 1948.65,-201.942 1992.49,-245.05 2033,-376 2050.86,-433.746 2017.05,-467.039 1962,-492 1896.81,-521.556 1398.99,-533.275 1245.15,-536.213"/>
<polygon fill="black" stroke="black" points="1245.03,-532.715 1235.1,-536.402 1245.16,-539.714 1245.03,-532.715"/>
</g>
<!-- arcade&#45;&gt;roslyn -->
<g id="edge72" class="edge"><title>arcade&#45;&gt;roslyn</title>
<path fill="none" stroke="black" d="M1035.92,-120.002C1054.38,-130.955 1080.99,-146.74 1101.53,-158.923"/>
<polygon fill="black" stroke="black" points="1099.81,-161.975 1110.2,-164.067 1103.38,-155.955 1099.81,-161.975"/>
</g>
<!-- arcade&#45;&gt;fsharp -->
<g id="edge61" class="edge"><title>arcade&#45;&gt;fsharp</title>
<path fill="none" stroke="black" d="M1045.46,-113.376C1078.31,-120.599 1130.95,-133.779 1174,-152 1178.44,-153.879 1182.99,-156.126 1187.38,-158.493"/>
<polygon fill="black" stroke="black" points="1185.69,-161.556 1196.12,-163.438 1189.14,-155.465 1185.69,-161.556"/>
</g>
<!-- arcade&#45;&gt;corefx -->
<g id="edge57" class="edge"><title>arcade&#45;&gt;corefx</title>
<path fill="none" stroke="black" d="M979.645,-107.559C899.963,-109.427 696.72,-117.483 531,-152 517.802,-154.749 503.688,-159.007 491.249,-163.234"/>
<polygon fill="black" stroke="black" points="489.961,-159.977 481.682,-166.589 492.277,-166.583 489.961,-159.977"/>
</g>
<!-- arcade&#45;&gt;corefx&#45;portable -->
<g id="edge53" class="edge"><title>arcade&#45;&gt;corefx&#45;portable</title>
<path fill="none" stroke="black" d="M979.465,-107.411C886.897,-108.981 625.754,-116.476 412,-152 397.919,-154.34 382.892,-157.786 369.009,-161.375"/>
<polygon fill="black" stroke="black" points="367.897,-158.049 359.132,-164.001 369.695,-164.814 367.897,-158.049"/>
</g>
<!-- standard -->
<g id="node15" class="node"><title>standard</title>
<ellipse fill="#c0ff3e" stroke="#c0ff3e" cx="230" cy="-106" rx="42.4939" ry="18"/>
<text text-anchor="middle" x="230" y="-102.3" font-family="Times New Roman,serif" font-size="14.00">standard</text>
</g>
<!-- arcade&#45;&gt;standard -->
<g id="edge81" class="edge"><title>arcade&#45;&gt;standard</title>
<path fill="none" stroke="black" d="M980.475,-101.147C856.252,-83.6261 422.599,-26.7008 291,-66 278.893,-69.6155 266.957,-76.4887 256.899,-83.5311"/>
<polygon fill="black" stroke="black" points="254.54,-80.9226 248.585,-89.6858 258.705,-86.5486 254.54,-80.9226"/>
</g>
<!-- newtonsoft&#45;json -->
<g id="node16" class="node"><title>newtonsoft&#45;json</title>
<ellipse fill="limegreen" stroke="limegreen" cx="881" cy="-178" rx="69.5877" ry="18"/>
<text text-anchor="middle" x="881" y="-174.3" font-family="Times New Roman,serif" font-size="14.00">newtonsoft&#45;json</text>
</g>
<!-- arcade&#45;&gt;newtonsoft&#45;json -->
<g id="edge68" class="edge"><title>arcade&#45;&gt;newtonsoft&#45;json</title>
<path fill="none" stroke="black" d="M990.528,-119.353C970.865,-129.702 942.407,-144.681 919.427,-156.775"/>
<polygon fill="black" stroke="black" points="917.496,-153.836 910.277,-161.591 920.757,-160.031 917.496,-153.836"/>
</g>
<!-- arcade&#45;&gt;sdk -->
<g id="edge74" class="edge"><title>arcade&#45;&gt;sdk</title>
<path fill="none" stroke="black" d="M979.811,-108.309C887.776,-112.18 640.09,-125.033 616,-152 550.426,-225.406 666.624,-291.497 726,-340 747.042,-357.189 774.552,-371.085 795.699,-380.33"/>
<polygon fill="black" stroke="black" points="794.349,-383.559 804.922,-384.245 797.085,-377.115 794.349,-383.559"/>
</g>
<!-- msbuild -->
<g id="node22" class="node"><title>msbuild</title>
<ellipse fill="#ffe7ba" stroke="#ffe7ba" cx="1142" cy="-250" rx="39.7935" ry="18"/>
<text text-anchor="middle" x="1142" y="-246.3" font-family="Times New Roman,serif" font-size="14.00">msbuild</text>
</g>
<!-- arcade&#45;&gt;msbuild -->
<g id="edge65" class="edge"><title>arcade&#45;&gt;msbuild</title>
<path fill="none" stroke="black" d="M1017.87,-123.993C1023.41,-145.007 1035.39,-180.83 1057,-204 1058.02,-205.098 1084.75,-219.18 1107.97,-231.302"/>
<polygon fill="black" stroke="black" points="1106.47,-234.47 1116.96,-235.991 1109.71,-228.263 1106.47,-234.47"/>
</g>
<!-- clicommandlineparser -->
<g id="node23" class="node"><title>clicommandlineparser</title>
<ellipse fill="#ffe7ba" stroke="#ffe7ba" cx="995" cy="-250" rx="89.8845" ry="18"/>
<text text-anchor="middle" x="995" y="-246.3" font-family="Times New Roman,serif" font-size="14.00">clicommandlineparser</text>
</g>
<!-- arcade&#45;&gt;clicommandlineparser -->
<g id="edge31" class="edge"><title>arcade&#45;&gt;clicommandlineparser</title>
<path fill="none" stroke="black" d="M1011.71,-124.129C1008.47,-148.33 1002.52,-192.789 998.665,-221.607"/>
<polygon fill="black" stroke="black" points="995.157,-221.435 997.3,-231.811 1002.1,-222.363 995.157,-221.435"/>
</g>
<!-- aspnet&#45;xdt -->
<g id="node25" class="node"><title>aspnet&#45;xdt</title>
<ellipse fill="#ffc1c1" stroke="#ffc1c1" cx="1818" cy="-394" rx="48.9926" ry="18"/>
<text text-anchor="middle" x="1818" y="-390.3" font-family="Times New Roman,serif" font-size="14.00">aspnet&#45;xdt</text>
</g>
<!-- arcade&#45;&gt;aspnet&#45;xdt -->
<g id="edge5" class="edge"><title>arcade&#45;&gt;aspnet&#45;xdt</title>
<path fill="none" stroke="black" d="M1048.35,-107.796C1171.59,-110.867 1591.18,-123.24 1722,-152 1808.58,-171.034 1857.89,-150.875 1908,-224 1942.03,-273.665 1882.86,-337.647 1845.33,-370.828"/>
<polygon fill="black" stroke="black" points="1842.97,-368.239 1837.69,-377.424 1847.55,-373.537 1842.97,-368.239"/>
</g>
<!-- aspnetcore -->
<g id="node27" class="node"><title>aspnetcore</title>
<ellipse fill="#ffc1c1" stroke="#ffc1c1" cx="1691" cy="-394" rx="50.0912" ry="18"/>
<text text-anchor="middle" x="1691" y="-390.3" font-family="Times New Roman,serif" font-size="14.00">aspnetcore</text>
</g>
<!-- arcade&#45;&gt;aspnetcore -->
<g id="edge11" class="edge"><title>arcade&#45;&gt;aspnetcore</title>
<path fill="none" stroke="black" d="M1048.35,-107.796C1171.59,-110.867 1591.18,-123.24 1722,-152 1808.58,-171.034 1857.89,-150.875 1908,-224 1939.73,-270.312 1904.1,-307.956 1858,-340 1838.87,-353.301 1782.82,-369.665 1740.89,-380.662"/>
<polygon fill="black" stroke="black" points="1739.91,-377.301 1731.11,-383.199 1741.67,-384.077 1739.91,-377.301"/>
</g>
<!-- aspnet&#45;extensions -->
<g id="node28" class="node"><title>aspnet&#45;extensions</title>
<ellipse fill="#ffc1c1" stroke="#ffc1c1" cx="1660" cy="-250" rx="75.2868" ry="18"/>
<text text-anchor="middle" x="1660" y="-246.3" font-family="Times New Roman,serif" font-size="14.00">aspnet&#45;extensions</text>
</g>
<!-- arcade&#45;&gt;aspnet&#45;extensions -->
<g id="edge2" class="edge"><title>arcade&#45;&gt;aspnet&#45;extensions</title>
<path fill="none" stroke="black" d="M1046.34,-112.289C1093.93,-120.198 1185.58,-135.908 1263,-152 1399.79,-180.433 1433.62,-189.488 1569,-224 1580.17,-226.848 1592.08,-230.02 1603.48,-233.123"/>
<polygon fill="black" stroke="black" points="1602.76,-236.554 1613.33,-235.821 1604.61,-229.803 1602.76,-236.554"/>
</g>
<!-- aspnetcore&#45;tooling -->
<g id="node29" class="node"><title>aspnetcore&#45;tooling</title>
<ellipse fill="#ffc1c1" stroke="#ffc1c1" cx="1699" cy="-322" rx="77.9862" ry="18"/>
<text text-anchor="middle" x="1699" y="-318.3" font-family="Times New Roman,serif" font-size="14.00">aspnetcore&#45;tooling</text>
</g>
<!-- arcade&#45;&gt;aspnetcore&#45;tooling -->
<g id="edge6" class="edge"><title>arcade&#45;&gt;aspnetcore&#45;tooling</title>
<path fill="none" stroke="black" d="M1048.07,-108.949C1202.28,-118.116 1829.93,-159.217 1886,-224 1901.13,-241.474 1900.3,-257.847 1886,-276 1872.31,-293.374 1822.71,-304.817 1778.03,-311.815"/>
<polygon fill="black" stroke="black" points="1777.36,-308.376 1768,-313.327 1778.41,-315.298 1777.36,-308.376"/>
</g>
<!-- websdk -->
<g id="node30" class="node"><title>websdk</title>
<ellipse fill="#ffc1c1" stroke="#ffc1c1" cx="1624" cy="-466" rx="38.9931" ry="18"/>
<text text-anchor="middle" x="1624" y="-462.3" font-family="Times New Roman,serif" font-size="14.00">websdk</text>
</g>
<!-- arcade&#45;&gt;websdk -->
<g id="edge95" class="edge"><title>arcade&#45;&gt;websdk</title>
<path fill="none" stroke="black" d="M1029.64,-122.104C1037.94,-130.516 1048.04,-141.405 1056,-152 1072.16,-173.513 1063.95,-190.112 1087,-204 1160.95,-248.563 1396.11,-188.918 1475,-224 1497.97,-234.216 1540.9,-283.181 1555,-304 1584.23,-347.173 1605.26,-404.729 1615.96,-438.04"/>
<polygon fill="black" stroke="black" points="1612.73,-439.46 1619.07,-447.955 1619.41,-437.365 1612.73,-439.46"/>
</g>
<!-- arcade&#45;&gt;cli -->
<g id="edge16" class="edge"><title>arcade&#45;&gt;cli</title>
<path fill="none" stroke="black" d="M979.58,-108.093C883.665,-111.49 618.705,-123.401 593,-152 582.454,-163.733 596.899,-270.146 600,-276 649.432,-369.319 690.467,-382.009 789,-420 852.473,-444.473 1055.12,-458.27 1139.05,-463.058"/>
<polygon fill="black" stroke="black" points="1138.97,-466.559 1149.15,-463.623 1139.36,-459.57 1138.97,-466.559"/>
</g>
<!-- roslyn&#45;&gt;coreclr -->
<g id="edge52" class="edge"><title>roslyn&#45;&gt;coreclr</title>
<path fill="none" stroke="black" d="M1100.98,-171.335C1067.18,-165.414 1011.44,-156.389 963,-152 832.127,-140.144 498.631,-167.109 372,-132 366.857,-130.574 361.664,-128.453 356.726,-126.039"/>
<polygon fill="black" stroke="black" points="358.085,-122.796 347.62,-121.14 354.769,-128.96 358.085,-122.796"/>
</g>
<!-- roslyn&#45;&gt;coreclr&#45;portable -->
<g id="edge50" class="edge"><title>roslyn&#45;&gt;coreclr&#45;portable</title>
<path fill="none" stroke="black" d="M1100.97,-171.451C1067.16,-165.631 1011.42,-156.69 963,-152 771.69,-133.469 720.343,-165.051 531,-132 520.122,-130.101 508.663,-127.168 497.897,-123.97"/>
<polygon fill="black" stroke="black" points="498.829,-120.594 488.241,-120.98 496.759,-127.281 498.829,-120.594"/>
</g>
<!-- core&#45;setup -->
<g id="node13" class="node"><title>core&#45;setup</title>
<ellipse fill="#c0ff3e" stroke="#c0ff3e" cx="286" cy="-250" rx="49.2915" ry="18"/>
<text text-anchor="middle" x="286" y="-246.3" font-family="Times New Roman,serif" font-size="14.00">core&#45;setup</text>
</g>
<!-- roslyn&#45;&gt;core&#45;setup -->
<g id="edge47" class="edge"><title>roslyn&#45;&gt;core&#45;setup</title>
<path fill="none" stroke="black" d="M1100.98,-184.68C1067.18,-190.612 1011.45,-199.648 963,-204 825.925,-216.312 478.321,-194.015 344,-224 336.79,-225.61 329.357,-228.104 322.319,-230.905"/>
<polygon fill="black" stroke="black" points="320.854,-227.725 313.024,-234.861 323.596,-234.165 320.854,-227.725"/>
</g>
<!-- core&#45;setup&#45;portable -->
<g id="node14" class="node"><title>core&#45;setup&#45;portable</title>
<ellipse fill="#c0ff3e" stroke="#c0ff3e" cx="435" cy="-250" rx="81.7856" ry="18"/>
<text text-anchor="middle" x="435" y="-246.3" font-family="Times New Roman,serif" font-size="14.00">core&#45;setup&#45;portable</text>
</g>
<!-- roslyn&#45;&gt;core&#45;setup&#45;portable -->
<g id="edge41" class="edge"><title>roslyn&#45;&gt;core&#45;setup&#45;portable</title>
<path fill="none" stroke="black" d="M1100.62,-184.236C1066.74,-189.748 1011.17,-198.39 963,-204 808.236,-222.025 627.157,-235.895 522.315,-243.22"/>
<polygon fill="black" stroke="black" points="521.833,-239.745 512.099,-243.929 522.318,-246.728 521.833,-239.745"/>
</g>
<!-- roslyn&#45;&gt;msbuild -->
<g id="edge67" class="edge"><title>roslyn&#45;&gt;msbuild</title>
<path fill="none" stroke="black" d="M1134.47,-196.303C1135.57,-204.017 1136.9,-213.288 1138.13,-221.888"/>
<polygon fill="black" stroke="black" points="1134.68,-222.491 1139.56,-231.896 1141.61,-221.501 1134.68,-222.491"/>
</g>
<!-- roslyn&#45;&gt;aspnetcore -->
<g id="edge15" class="edge"><title>roslyn&#45;&gt;aspnetcore</title>
<path fill="none" stroke="black" d="M1150.7,-192.901C1157.66,-197.302 1165.85,-201.635 1174,-204 1212,-215.031 1858.41,-195.629 1886,-224 1945.33,-285.017 1809.22,-348.54 1735.07,-377.249"/>
<polygon fill="black" stroke="black" points="1733.58,-374.071 1725.48,-380.902 1736.07,-380.613 1733.58,-374.071"/>
</g>
<!-- roslyn&#45;&gt;aspnet&#45;extensions -->
<g id="edge4" class="edge"><title>roslyn&#45;&gt;aspnet&#45;extensions</title>
<path fill="none" stroke="black" d="M1151.15,-193.064C1158.02,-197.365 1166.04,-201.593 1174,-204 1258.55,-229.566 1483.82,-209.745 1571,-224 1583,-225.963 1595.7,-228.954 1607.63,-232.193"/>
<polygon fill="black" stroke="black" points="1606.86,-235.613 1617.43,-234.955 1608.75,-228.875 1606.86,-235.613"/>
</g>
<!-- roslyn&#45;&gt;aspnetcore&#45;tooling -->
<g id="edge10" class="edge"><title>roslyn&#45;&gt;aspnetcore&#45;tooling</title>
<path fill="none" stroke="black" d="M1151.16,-193.039C1158.03,-197.339 1166.05,-201.572 1174,-204 1250.42,-227.329 1461.68,-187.974 1533,-224 1559.77,-237.522 1551.51,-258.69 1576,-276 1594.19,-288.86 1616.48,-298.468 1637.06,-305.429"/>
<polygon fill="black" stroke="black" points="1636.09,-308.795 1646.68,-308.54 1638.25,-302.134 1636.09,-308.795"/>
</g>
<!-- roslyn&#45;&gt;cli -->
<g id="edge25" class="edge"><title>roslyn&#45;&gt;cli</title>
<path fill="none" stroke="black" d="M1151.22,-192.855C1158.09,-197.14 1166.1,-201.411 1174,-204 1217.92,-218.389 1349.93,-189.786 1381,-224 1405.46,-250.942 1443.77,-340.442 1379,-420 1358.38,-445.327 1265.5,-457.332 1212.81,-462.195"/>
<polygon fill="black" stroke="black" points="1212.49,-458.709 1202.84,-463.074 1213.1,-465.682 1212.49,-458.709"/>
</g>
<!-- fsharp&#45;&gt;toolset -->
<g id="edge86" class="edge"><title>fsharp&#45;&gt;toolset</title>
<path fill="none" stroke="black" d="M1250.5,-180.583C1384.64,-186.998 1877.3,-211.324 1908,-224 1968.56,-249.006 2019,-255.484 2019,-321 2019,-321 2019,-321 2019,-395 2019,-467.089 1956.64,-467.069 1889,-492 1770.45,-535.693 1379.99,-537.942 1245.78,-537.373"/>
<polygon fill="black" stroke="black" points="1245.47,-533.872 1235.45,-537.322 1245.43,-540.872 1245.47,-533.872"/>
</g>
<!-- coreclr&#45;&gt;corefx -->
<g id="edge59" class="edge"><title>coreclr&#45;&gt;corefx</title>
<path fill="none" stroke="black" d="M350.331,-120.021C357.294,-123.891 364.949,-128.13 372,-132 388.659,-141.143 407.253,-151.235 422.612,-159.54"/>
<polygon fill="black" stroke="black" points="421.249,-162.782 431.71,-164.456 424.576,-156.623 421.249,-162.782"/>
</g>
<!-- coreclr&#45;&gt;corefx&#45;portable -->
<g id="edge55" class="edge"><title>coreclr&#45;&gt;corefx&#45;portable</title>
<path fill="none" stroke="black" d="M324.281,-124.303C323.069,-132.017 321.612,-141.288 320.261,-149.888"/>
<polygon fill="black" stroke="black" points="316.783,-149.474 318.688,-159.896 323.698,-150.56 316.783,-149.474"/>
</g>
<!-- coreclr&#45;&gt;core&#45;setup -->
<g id="edge43" class="edge"><title>coreclr&#45;&gt;core&#45;setup</title>
<path fill="none" stroke="black" d="M350.459,-120.073C367.142,-129.92 387.382,-143.186 392,-152 402.726,-172.471 404.82,-184.77 392,-204 379.18,-223.23 365.279,-214.981 344,-224 338.17,-226.471 332.018,-229.099 325.987,-231.688"/>
<polygon fill="black" stroke="black" points="324.475,-228.529 316.673,-235.696 327.242,-234.959 324.475,-228.529"/>
</g>
<!-- coreclr&#45;&gt;core&#45;setup&#45;portable -->
<g id="edge37" class="edge"><title>coreclr&#45;&gt;core&#45;setup&#45;portable</title>
<path fill="none" stroke="black" d="M348.257,-120.81C355.534,-124.986 363.89,-129.201 372,-132 398.8,-141.247 479.591,-130.439 498,-152 513.007,-169.576 508.575,-183.45 498,-204 493.153,-213.419 485.319,-221.304 476.797,-227.706"/>
<polygon fill="black" stroke="black" points="474.766,-224.855 468.491,-233.392 478.72,-230.631 474.766,-224.855"/>
</g>
<!-- corefx&#45;&gt;core&#45;setup -->
<g id="edge44" class="edge"><title>corefx&#45;&gt;core&#45;setup</title>
<path fill="none" stroke="black" d="M432.434,-191.777C424.53,-195.975 415.503,-200.467 407,-204 379.871,-215.272 371.523,-213.729 344,-224 337.865,-226.289 331.436,-228.871 325.184,-231.484"/>
<polygon fill="black" stroke="black" points="323.402,-228.439 315.573,-235.579 326.145,-234.879 323.402,-228.439"/>
</g>
<!-- corefx&#45;&gt;core&#45;setup&#45;portable -->
<g id="edge38" class="edge"><title>corefx&#45;&gt;core&#45;setup&#45;portable</title>
<path fill="none" stroke="black" d="M450.159,-195.945C447.932,-203.739 445.235,-213.178 442.737,-221.921"/>
<polygon fill="black" stroke="black" points="439.318,-221.148 439.936,-231.725 446.048,-223.071 439.318,-221.148"/>
</g>
<!-- corefx&#45;&gt;msbuild -->
<g id="edge66" class="edge"><title>corefx&#45;&gt;msbuild</title>
<path fill="none" stroke="black" d="M486.94,-185.043C519.328,-190.915 570.959,-199.575 616,-204 721.806,-214.395 991.285,-196.566 1094,-224 1099.56,-225.485 1105.21,-227.691 1110.58,-230.187"/>
<polygon fill="black" stroke="black" points="1109.38,-233.502 1119.88,-234.901 1112.55,-227.258 1109.38,-233.502"/>
</g>
<!-- corefx&#45;&gt;cli -->
<g id="edge20" class="edge"><title>corefx&#45;&gt;cli</title>
<path fill="none" stroke="black" d="M430.05,-190.613C418.67,-195.46 404.885,-200.716 392,-204 356.423,-213.068 252.339,-196.512 228,-224 212.679,-241.303 217.073,-255.635 228,-276 282.725,-377.994 335.263,-383.186 445,-420 575.588,-463.809 1008.73,-465.697 1138.77,-465.242"/>
<polygon fill="black" stroke="black" points="1139.02,-468.741 1149,-465.199 1138.99,-461.741 1139.02,-468.741"/>
</g>
<!-- core&#45;setup&#45;&gt;sdk -->
<g id="edge76" class="edge"><title>core&#45;setup&#45;&gt;sdk</title>
<path fill="none" stroke="black" d="M314.76,-264.8C323.951,-268.827 334.267,-272.958 344,-276 404.15,-294.796 421.798,-288.979 483,-304 538.733,-317.678 551.527,-325.304 607,-340 672.323,-357.305 749.158,-375.177 792.864,-385.112"/>
<polygon fill="black" stroke="black" points="792.188,-388.548 802.714,-387.344 793.735,-381.721 792.188,-388.548"/>
</g>
<!-- vstest -->
<g id="node19" class="node"><title>vstest</title>
<ellipse fill="#ffe7ba" stroke="#ffe7ba" cx="1231" cy="-250" rx="31.6951" ry="18"/>
<text text-anchor="middle" x="1231" y="-246.3" font-family="Times New Roman,serif" font-size="14.00">vstest</text>
</g>
<!-- core&#45;setup&#45;&gt;vstest -->
<g id="edge93" class="edge"><title>core&#45;setup&#45;&gt;vstest</title>
<path fill="none" stroke="black" d="M309.013,-233.967C321.428,-226.292 337.377,-217.931 353,-214 397.663,-202.761 1138.24,-199.652 1182,-214 1190.8,-216.884 1199.31,-222.016 1206.71,-227.517"/>
<polygon fill="black" stroke="black" points="1204.85,-230.506 1214.84,-234.033 1209.23,-225.046 1204.85,-230.506"/>
</g>
<!-- core&#45;setup&#45;&gt;aspnetcore -->
<g id="edge13" class="edge"><title>core&#45;setup&#45;&gt;aspnetcore</title>
<path fill="none" stroke="black" d="M313.021,-265.152C322.552,-269.461 333.51,-273.671 344,-276 546.06,-320.87 1069.52,-279.136 1275,-304 1311.01,-308.357 1536.74,-358.441 1639.8,-381.503"/>
<polygon fill="black" stroke="black" points="1639.15,-384.945 1649.68,-383.714 1640.68,-378.114 1639.15,-384.945"/>
</g>
<!-- core&#45;setup&#45;&gt;aspnet&#45;extensions -->
<g id="edge3" class="edge"><title>core&#45;setup&#45;&gt;aspnet&#45;extensions</title>
<path fill="none" stroke="black" d="M309.013,-233.967C321.428,-226.292 337.377,-217.931 353,-214 416.089,-198.124 1459.49,-205.606 1524,-214 1551.69,-217.603 1581.77,-225.167 1606.59,-232.437"/>
<polygon fill="black" stroke="black" points="1605.59,-235.791 1616.17,-235.306 1607.59,-229.085 1605.59,-235.791"/>
</g>
<!-- core&#45;setup&#45;&gt;aspnetcore&#45;tooling -->
<g id="edge8" class="edge"><title>core&#45;setup&#45;&gt;aspnetcore&#45;tooling</title>
<path fill="none" stroke="black" d="M313.014,-265.181C322.545,-269.492 333.504,-273.696 344,-276 464.612,-302.476 1331.65,-298.152 1455,-304 1508.84,-306.553 1569.28,-310.754 1616.53,-314.341"/>
<polygon fill="black" stroke="black" points="1616.48,-317.846 1626.72,-315.119 1617.01,-310.867 1616.48,-317.846"/>
</g>
<!-- core&#45;setup&#45;&gt;cli -->
<g id="edge19" class="edge"><title>core&#45;setup&#45;&gt;cli</title>
<path fill="none" stroke="black" d="M306.726,-266.498C337.462,-289.658 396.692,-334.972 445,-376 467.058,-394.734 466.388,-408.627 493,-420 552.513,-445.434 1005.34,-460.168 1138.98,-463.994"/>
<polygon fill="black" stroke="black" points="1139.03,-467.497 1149.12,-464.281 1139.23,-460.5 1139.03,-467.497"/>
</g>
<!-- standard&#45;&gt;corefx -->
<g id="edge60" class="edge"><title>standard&#45;&gt;corefx</title>
<path fill="none" stroke="black" d="M254.829,-120.609C263.255,-124.772 272.854,-129.03 282,-132 329.261,-147.348 344.228,-138.325 392,-152 401.305,-154.664 411.134,-158.196 420.19,-161.765"/>
<polygon fill="black" stroke="black" points="419.07,-165.087 429.651,-165.611 421.706,-158.603 419.07,-165.087"/>
</g>
<!-- standard&#45;&gt;corefx&#45;portable -->
<g id="edge56" class="edge"><title>standard&#45;&gt;corefx&#45;portable</title>
<path fill="none" stroke="black" d="M248.661,-122.189C260.089,-131.491 274.936,-143.576 287.781,-154.031"/>
<polygon fill="black" stroke="black" points="285.911,-157.022 295.876,-160.62 290.33,-151.593 285.911,-157.022"/>
</g>
<!-- standard&#45;&gt;core&#45;setup -->
<g id="edge48" class="edge"><title>standard&#45;&gt;core&#45;setup</title>
<path fill="none" stroke="black" d="M224.209,-124.18C218.448,-144.436 212.155,-178.561 225,-204 230.276,-214.449 239.25,-223.069 248.714,-229.87"/>
<polygon fill="black" stroke="black" points="246.801,-232.801 257.078,-235.379 250.652,-226.955 246.801,-232.801"/>
</g>
<!-- standard&#45;&gt;core&#45;setup&#45;portable -->
<g id="edge42" class="edge"><title>standard&#45;&gt;core&#45;setup&#45;portable</title>
<path fill="none" stroke="black" d="M229.407,-124.19C228.936,-148.892 229.649,-192.704 240,-204 271.8,-238.703 298.16,-213.313 344,-224 354.983,-226.561 366.64,-229.552 377.813,-232.557"/>
<polygon fill="black" stroke="black" points="376.91,-235.938 387.478,-235.191 378.75,-229.185 376.91,-235.938"/>
</g>
<!-- standard&#45;&gt;cli -->
<g id="edge27" class="edge"><title>standard&#45;&gt;cli</title>
<path fill="none" stroke="black" d="M222.514,-123.726C219.192,-132.044 215.663,-142.358 214,-152 211.999,-163.598 213.884,-270.844 215,-276 231.7,-353.16 247.298,-386.964 319,-420 394.076,-454.59 983.021,-463.026 1138.48,-464.659"/>
<polygon fill="black" stroke="black" points="1138.88,-468.163 1148.91,-464.765 1138.95,-461.163 1138.88,-468.163"/>
</g>
<!-- newtonsoft&#45;json&#45;&gt;fsharp -->
<g id="edge63" class="edge"><title>newtonsoft&#45;json&#45;&gt;fsharp</title>
<path fill="none" stroke="black" d="M931.262,-165.503C968.254,-156.972 1019.91,-146.442 1066,-142 1109.8,-137.778 1123,-128.881 1165,-142 1174.65,-145.013 1184.08,-150.512 1192.2,-156.321"/>
<polygon fill="black" stroke="black" points="1190.08,-159.103 1200.15,-162.395 1194.33,-153.541 1190.08,-159.103"/>
</g>
<!-- newtonsoft&#45;json&#45;&gt;core&#45;setup -->
<g id="edge45" class="edge"><title>newtonsoft&#45;json&#45;&gt;core&#45;setup</title>
<path fill="none" stroke="black" d="M843.428,-193.275C830.767,-197.482 816.438,-201.598 803,-204 601.992,-239.925 543.035,-178.392 344,-224 336.799,-225.65 329.371,-228.163 322.334,-230.971"/>
<polygon fill="black" stroke="black" points="320.869,-227.791 313.039,-234.929 323.611,-234.231 320.869,-227.791"/>
</g>
<!-- newtonsoft&#45;json&#45;&gt;core&#45;setup&#45;portable -->
<g id="edge39" class="edge"><title>newtonsoft&#45;json&#45;&gt;core&#45;setup&#45;portable</title>
<path fill="none" stroke="black" d="M842.114,-193.053C829.744,-197.093 815.918,-201.167 803,-204 750.431,-215.531 609.506,-231.199 518.095,-240.679"/>
<polygon fill="black" stroke="black" points="517.618,-237.21 508.03,-241.719 518.337,-244.173 517.618,-237.21"/>
</g>
<!-- newtonsoft&#45;json&#45;&gt;sdk -->
<g id="edge78" class="edge"><title>newtonsoft&#45;json&#45;&gt;sdk</title>
<path fill="none" stroke="black" d="M838.895,-192.393C799.818,-204.919 747.445,-221.996 746,-224 710.722,-272.946 769.261,-339.411 804.441,-372.511"/>
<polygon fill="black" stroke="black" points="802.238,-375.24 811.971,-379.426 806.973,-370.084 802.238,-375.24"/>
</g>
<!-- newtonsoft&#45;json&#45;&gt;vstest -->
<g id="edge94" class="edge"><title>newtonsoft&#45;json&#45;&gt;vstest</title>
<path fill="none" stroke="black" d="M940.438,-187.473C1029.63,-200.209 1188.07,-222.925 1191,-224 1195.27,-225.564 1199.56,-227.625 1203.68,-229.894"/>
<polygon fill="black" stroke="black" points="1201.93,-232.929 1212.31,-235.081 1205.54,-226.929 1201.93,-232.929"/>
</g>
<!-- nuget&#45;client -->
<g id="node20" class="node"><title>nuget&#45;client</title>
<ellipse fill="#ffe7ba" stroke="#ffe7ba" cx="985" cy="-322" rx="51.9908" ry="18"/>
<text text-anchor="middle" x="985" y="-318.3" font-family="Times New Roman,serif" font-size="14.00">nuget&#45;client</text>
</g>
<!-- newtonsoft&#45;json&#45;&gt;nuget&#45;client -->
<g id="edge69" class="edge"><title>newtonsoft&#45;json&#45;&gt;nuget&#45;client</title>
<path fill="none" stroke="black" d="M834.107,-191.532C817.889,-198.359 801.432,-208.661 792,-224 779.894,-243.687 777.452,-258.042 792,-276 829.751,-322.599 865.753,-289.721 924,-304 928.084,-305.001 932.31,-306.083 936.543,-307.198"/>
<polygon fill="black" stroke="black" points="935.807,-310.625 946.373,-309.841 937.624,-303.865 935.807,-310.625"/>
</g>
<!-- common -->
<g id="node21" class="node"><title>common</title>
<ellipse fill="#ffe7ba" stroke="#ffe7ba" cx="844" cy="-250" rx="42.7926" ry="18"/>
<text text-anchor="middle" x="844" y="-246.3" font-family="Times New Roman,serif" font-size="14.00">common</text>
</g>
<!-- newtonsoft&#45;json&#45;&gt;common -->
<g id="edge32" class="edge"><title>newtonsoft&#45;json&#45;&gt;common</title>
<path fill="none" stroke="black" d="M872.043,-195.945C867.726,-204.113 862.453,-214.088 857.65,-223.176"/>
<polygon fill="black" stroke="black" points="854.453,-221.734 852.874,-232.211 860.642,-225.006 854.453,-221.734"/>
</g>
<!-- templating -->
<g id="node24" class="node"><title>templating</title>
<ellipse fill="#ffe7ba" stroke="#ffe7ba" cx="867" cy="-322" rx="48.1917" ry="18"/>
<text text-anchor="middle" x="867" y="-318.3" font-family="Times New Roman,serif" font-size="14.00">templating</text>
</g>
<!-- newtonsoft&#45;json&#45;&gt;templating -->
<g id="edge83" class="edge"><title>newtonsoft&#45;json&#45;&gt;templating</title>
<path fill="none" stroke="black" d="M840.516,-192.696C805.983,-204.57 761.509,-220.4 759,-224 745.785,-242.96 746.18,-256.77 759,-276 771.305,-294.457 792.764,-305.356 813.329,-311.786"/>
<polygon fill="black" stroke="black" points="812.418,-315.166 822.993,-314.517 814.322,-308.429 812.418,-315.166"/>
</g>
<!-- newtonsoft&#45;json&#45;&gt;websdk -->
<g id="edge98" class="edge"><title>newtonsoft&#45;json&#45;&gt;websdk</title>
<path fill="none" stroke="black" d="M937.92,-188.35C972.31,-193.683 1017.07,-200.069 1057,-204 1137.18,-211.895 1342.98,-197.305 1419,-224 1447.86,-234.134 1511.97,-280.053 1531,-304 1565.71,-347.683 1548.01,-373.603 1579,-420 1584.41,-428.097 1591.43,-435.951 1598.3,-442.771"/>
<polygon fill="black" stroke="black" points="1595.97,-445.38 1605.63,-449.728 1600.79,-440.304 1595.97,-445.38"/>
</g>
<!-- newtonsoft&#45;json&#45;&gt;cli -->
<g id="edge23" class="edge"><title>newtonsoft&#45;json&#45;&gt;cli</title>
<path fill="none" stroke="black" d="M938.754,-188.104C973.051,-193.285 1017.43,-199.598 1057,-204 1084.48,-207.056 1286.25,-203.682 1305,-224 1328.07,-249.003 1363.9,-335.071 1303,-420 1282.58,-448.483 1242.55,-459.04 1212.87,-462.897"/>
<polygon fill="black" stroke="black" points="1212.41,-459.427 1202.85,-464.001 1213.18,-466.385 1212.41,-459.427"/>
</g>
<!-- newtonsoft&#45;json&#45;&gt;toolset -->
<g id="edge88" class="edge"><title>newtonsoft&#45;json&#45;&gt;toolset</title>
<path fill="none" stroke="black" d="M938.742,-188.219C973.034,-193.439 1017.41,-199.754 1057,-204 1117.92,-210.535 1277.69,-195.622 1332,-224 1409.02,-264.248 1426.01,-294.076 1455,-376 1472.2,-424.601 1488.14,-452.504 1455,-492 1428.74,-523.301 1311.2,-532.839 1245.26,-535.739"/>
<polygon fill="black" stroke="black" points="1244.99,-532.247 1235.14,-536.15 1245.27,-539.241 1244.99,-532.247"/>
</g>
<!-- core&#45;sdk -->
<g id="node33" class="node"><title>core&#45;sdk</title>
<ellipse fill="gold" stroke="gold" cx="1192" cy="-610" rx="42.7926" ry="18"/>
<text text-anchor="middle" x="1192" y="-606.3" font-family="Times New Roman,serif" font-size="14.00">core&#45;sdk</text>
</g>
<!-- newtonsoft&#45;json&#45;&gt;core&#45;sdk -->
<g id="edge34" class="edge"><title>newtonsoft&#45;json&#45;&gt;core&#45;sdk</title>
<path fill="none" stroke="black" d="M939.904,-187.67C981.022,-193.349 1037.24,-200.368 1087,-204 1109.23,-205.622 1873.44,-208.047 1889,-224 1930.58,-266.634 1926.43,-445.677 1889,-492 1808.32,-591.841 1393.94,-606.635 1245.22,-608.709"/>
<polygon fill="black" stroke="black" points="1244.93,-605.212 1234.98,-608.837 1245.02,-612.211 1244.93,-605.212"/>
</g>
<!-- newtonsoft&#45;json901 -->
<g id="node17" class="node"><title>newtonsoft&#45;json901</title>
<ellipse fill="limegreen" stroke="limegreen" cx="711" cy="-178" rx="82.5854" ry="18"/>
<text text-anchor="middle" x="711" y="-174.3" font-family="Times New Roman,serif" font-size="14.00">newtonsoft&#45;json901</text>
</g>
<!-- newtonsoft&#45;json901&#45;&gt;fsharp -->
<g id="edge62" class="edge"><title>newtonsoft&#45;json901&#45;&gt;fsharp</title>
<path fill="none" stroke="black" d="M746.748,-161.727C765.462,-154.091 789.006,-145.838 811,-142 849.748,-135.238 1127.46,-130.272 1165,-142 1174.65,-145.013 1184.08,-150.512 1192.2,-156.321"/>
<polygon fill="black" stroke="black" points="1190.08,-159.103 1200.15,-162.395 1194.33,-153.541 1190.08,-159.103"/>
</g>
<!-- newtonsoft&#45;json901&#45;&gt;core&#45;setup -->
<g id="edge46" class="edge"><title>newtonsoft&#45;json901&#45;&gt;core&#45;setup</title>
<path fill="none" stroke="black" d="M644.389,-188.761C610.477,-193.6 568.577,-199.382 531,-204 448.039,-214.195 424.845,-202.774 344,-224 337.159,-225.796 330.084,-228.274 323.326,-230.976"/>
<polygon fill="black" stroke="black" points="321.562,-227.922 313.717,-235.043 324.291,-234.369 321.562,-227.922"/>
</g>
<!-- newtonsoft&#45;json901&#45;&gt;core&#45;setup&#45;portable -->
<g id="edge40" class="edge"><title>newtonsoft&#45;json901&#45;&gt;core&#45;setup&#45;portable</title>
<path fill="none" stroke="black" d="M659.41,-192.084C613.284,-203.783 545.607,-220.947 496.645,-233.366"/>
<polygon fill="black" stroke="black" points="495.637,-230.01 486.805,-235.861 497.358,-236.795 495.637,-230.01"/>
</g>
<!-- newtonsoft&#45;json901&#45;&gt;sdk -->
<g id="edge79" class="edge"><title>newtonsoft&#45;json901&#45;&gt;sdk</title>
<path fill="none" stroke="black" d="M710.716,-196.2C711.028,-227.621 715.625,-295.186 747,-340 759.198,-357.423 779.133,-370.573 796.173,-379.416"/>
<polygon fill="black" stroke="black" points="794.756,-382.62 805.275,-383.886 797.841,-376.336 794.756,-382.62"/>
</g>
<!-- newtonsoft&#45;json901&#45;&gt;cli -->
<g id="edge24" class="edge"><title>newtonsoft&#45;json901&#45;&gt;cli</title>
<path fill="none" stroke="black" d="M754.997,-193.241C769.779,-197.446 786.46,-201.569 802,-204 827.985,-208.065 1256.8,-205.013 1275,-224 1305.14,-255.442 1298.58,-383.38 1275,-420 1261.17,-441.474 1234.31,-452.819 1212.06,-458.743"/>
<polygon fill="black" stroke="black" points="1211.13,-455.367 1202.22,-461.101 1212.76,-462.174 1211.13,-455.367"/>
</g>
<!-- newtonsoft&#45;json901&#45;&gt;toolset -->
<g id="edge89" class="edge"><title>newtonsoft&#45;json901&#45;&gt;toolset</title>
<path fill="none" stroke="black" d="M754.994,-193.26C769.776,-197.465 786.458,-201.585 802,-204 829.306,-208.243 1278.66,-205.299 1299,-224 1363.14,-282.955 1332.57,-340.475 1297,-420 1280.14,-457.705 1247.63,-493.047 1224.91,-514.816"/>
<polygon fill="black" stroke="black" points="1222.22,-512.538 1217.33,-521.932 1227.01,-517.643 1222.22,-512.538"/>
</g>
<!-- newtonsoft&#45;json901&#45;&gt;core&#45;sdk -->
<g id="edge35" class="edge"><title>newtonsoft&#45;json901&#45;&gt;core&#45;sdk</title>
<path fill="none" stroke="black" d="M709.09,-196.257C707.296,-215.72 705.38,-248.274 709,-276 718.478,-348.597 731.665,-374.471 789,-420 903.676,-511.063 1069.39,-570.869 1147.75,-595.798"/>
<polygon fill="black" stroke="black" points="1147.18,-599.286 1157.77,-598.944 1149.28,-592.607 1147.18,-599.286"/>
</g>
<!-- sdk&#45;&gt;cli -->
<g id="edge26" class="edge"><title>sdk&#45;&gt;cli</title>
<path fill="none" stroke="black" d="M851.015,-403.597C865.949,-408.918 885.925,-415.56 904,-420 987.059,-440.403 1086.69,-454.248 1139.29,-460.749"/>
<polygon fill="black" stroke="black" points="1139.12,-464.254 1149.47,-461.988 1139.97,-457.306 1139.12,-464.254"/>
</g>
<!-- vstest&#45;&gt;toolset -->
<g id="edge90" class="edge"><title>vstest&#45;&gt;toolset</title>
<path fill="none" stroke="black" d="M1230.72,-268.078C1229.83,-307.703 1226.24,-408.851 1212,-492 1210.99,-497.877 1209.57,-504.103 1208.06,-509.989"/>
<polygon fill="black" stroke="black" points="1204.56,-509.497 1205.3,-520.067 1211.31,-511.345 1204.56,-509.497"/>
</g>
<!-- nuget&#45;client&#45;&gt;sdk -->
<g id="edge80" class="edge"><title>nuget&#45;client&#45;&gt;sdk</title>
<path fill="none" stroke="black" d="M954.356,-336.663C926.896,-348.906 886.802,-366.783 859.179,-379.099"/>
<polygon fill="black" stroke="black" points="857.678,-375.936 849.97,-383.205 860.528,-382.329 857.678,-375.936"/>
</g>
<!-- nuget&#45;client&#45;&gt;cli -->
<g id="edge22" class="edge"><title>nuget&#45;client&#45;&gt;cli</title>
<path fill="none" stroke="black" d="M998.939,-339.367C1017.17,-360.054 1050.82,-395.868 1085,-420 1103.22,-432.864 1125.67,-444.008 1143.71,-451.987"/>
<polygon fill="black" stroke="black" points="1142.65,-455.344 1153.22,-456.086 1145.42,-448.915 1142.65,-455.344"/>
</g>
<!-- common&#45;&gt;nuget&#45;client -->
<g id="edge70" class="edge"><title>common&#45;&gt;nuget&#45;client</title>
<path fill="none" stroke="black" d="M870.521,-264.166C892.071,-274.865 922.75,-290.096 946.925,-302.097"/>
<polygon fill="black" stroke="black" points="945.658,-305.376 956.172,-306.688 948.771,-299.106 945.658,-305.376"/>
</g>
<!-- msbuild&#45;&gt;sdk -->
<g id="edge77" class="edge"><title>msbuild&#45;&gt;sdk</title>
<path fill="none" stroke="black" d="M1129.19,-267.132C1112.3,-287.289 1080.64,-321.391 1046,-340 987.395,-371.488 909.946,-384.552 864.889,-389.76"/>
<polygon fill="black" stroke="black" points="864.266,-386.306 854.703,-390.866 865.023,-393.265 864.266,-386.306"/>
</g>
<!-- msbuild&#45;&gt;nuget&#45;client -->
<g id="edge71" class="edge"><title>msbuild&#45;&gt;nuget&#45;client</title>
<path fill="none" stroke="black" d="M1117.3,-264.399C1109.87,-268.28 1101.67,-272.43 1094,-276 1072.63,-285.953 1048.43,-296.058 1028.27,-304.163"/>
<polygon fill="black" stroke="black" points="1026.72,-301.014 1018.73,-307.972 1029.31,-307.515 1026.72,-301.014"/>
</g>
<!-- msbuild&#45;&gt;aspnetcore -->
<g id="edge14" class="edge"><title>msbuild&#45;&gt;aspnetcore</title>
<path fill="none" stroke="black" d="M1164.69,-265.04C1172.45,-269.231 1181.36,-273.397 1190,-276 1303.4,-310.175 1339.77,-276.66 1455,-304 1527,-321.081 1606.77,-354.39 1652.69,-375.062"/>
<polygon fill="black" stroke="black" points="1651.41,-378.323 1661.96,-379.27 1654.3,-371.949 1651.41,-378.323"/>
</g>
<!-- msbuild&#45;&gt;aspnetcore&#45;tooling -->
<g id="edge9" class="edge"><title>msbuild&#45;&gt;aspnetcore&#45;tooling</title>
<path fill="none" stroke="black" d="M1164.67,-265.126C1172.43,-269.323 1181.34,-273.471 1190,-276 1200.11,-278.952 1475.23,-302.28 1616.68,-314.134"/>
<polygon fill="black" stroke="black" points="1616.79,-317.655 1627.05,-315.002 1617.37,-310.68 1616.79,-317.655"/>
</g>
<!-- msbuild&#45;&gt;cli -->
<g id="edge21" class="edge"><title>msbuild&#45;&gt;cli</title>
<path fill="none" stroke="black" d="M1144.72,-268.151C1150.62,-305.26 1164.6,-393.253 1171.7,-437.946"/>
<polygon fill="black" stroke="black" points="1168.28,-438.738 1173.31,-448.065 1175.2,-437.639 1168.28,-438.738"/>
</g>
<!-- clicommandlineparser&#45;&gt;templating -->
<g id="edge82" class="edge"><title>clicommandlineparser&#45;&gt;templating</title>
<path fill="none" stroke="black" d="M965.634,-267.059C946.688,-277.42 921.948,-290.95 901.985,-301.867"/>
<polygon fill="black" stroke="black" points="900.282,-298.81 893.187,-306.679 903.64,-304.951 900.282,-298.81"/>
</g>
<!-- clicommandlineparser&#45;&gt;cli -->
<g id="edge18" class="edge"><title>clicommandlineparser&#45;&gt;cli</title>
<path fill="none" stroke="black" d="M1011.92,-267.831C1022.04,-278.077 1035.02,-291.55 1046,-304 1087.7,-351.288 1133.32,-409.406 1157.89,-441.28"/>
<polygon fill="black" stroke="black" points="1155.37,-443.747 1164.24,-449.544 1160.92,-439.482 1155.37,-443.747"/>
</g>
<!-- templating&#45;&gt;cli -->
<g id="edge28" class="edge"><title>templating&#45;&gt;cli</title>
<path fill="none" stroke="black" d="M889.079,-338.203C919.936,-358.922 978.228,-396.169 1032,-420 1067.99,-435.949 1111.35,-448.68 1141.02,-456.475"/>
<polygon fill="black" stroke="black" points="1140.36,-459.918 1150.91,-459.024 1142.1,-453.139 1140.36,-459.918"/>
</g>
<!-- aspnet&#45;xdt&#45;&gt;websdk -->
<g id="edge97" class="edge"><title>aspnet&#45;xdt&#45;&gt;websdk</title>
<path fill="none" stroke="black" d="M1784.82,-407.269C1773.75,-411.342 1761.35,-415.886 1750,-420 1721.08,-430.48 1688.37,-442.158 1663.52,-450.992"/>
<polygon fill="black" stroke="black" points="1662.32,-447.704 1654.07,-454.349 1664.66,-454.3 1662.32,-447.704"/>
</g>
<!-- aspnet&#45;tooling -->
<g id="node26" class="node"><title>aspnet&#45;tooling</title>
<ellipse fill="#ffc1c1" stroke="#ffc1c1" cx="1815" cy="-250" rx="61.99" ry="18"/>
<text text-anchor="middle" x="1815" y="-246.3" font-family="Times New Roman,serif" font-size="14.00">aspnet&#45;tooling</text>
</g>
<!-- aspnetcore&#45;&gt;websdk -->
<g id="edge96" class="edge"><title>aspnetcore&#45;&gt;websdk</title>
<path fill="none" stroke="black" d="M1675.46,-411.235C1666.71,-420.376 1655.64,-431.94 1646.01,-442"/>
<polygon fill="black" stroke="black" points="1643.38,-439.69 1638.99,-449.334 1648.44,-444.53 1643.38,-439.69"/>
</g>
<!-- aspnetcore&#45;&gt;core&#45;sdk -->
<g id="edge33" class="edge"><title>aspnetcore&#45;&gt;core&#45;sdk</title>
<path fill="none" stroke="black" d="M1692.77,-412.208C1693.97,-433.783 1692.51,-470.534 1672,-492 1612.89,-553.871 1354.35,-590.37 1243.15,-603.463"/>
<polygon fill="black" stroke="black" points="1242.71,-599.991 1233.18,-604.621 1243.51,-606.944 1242.71,-599.991"/>
</g>
<!-- aspnet&#45;extensions&#45;&gt;vstest -->
<g id="edge92" class="edge"><title>aspnet&#45;extensions&#45;&gt;vstest</title>
<path fill="none" stroke="black" d="M1584.45,-250C1480.73,-250 1377.01,-250 1273.3,-250"/>
<polygon fill="black" stroke="black" points="1273.26,-246.5 1263.26,-250 1273.26,-253.5 1273.26,-246.5"/>
</g>
<!-- aspnet&#45;extensions&#45;&gt;aspnetcore&#45;tooling -->
<g id="edge7" class="edge"><title>aspnet&#45;extensions&#45;&gt;aspnetcore&#45;tooling</title>
<path fill="none" stroke="black" d="M1669.44,-267.945C1673.92,-275.993 1679.39,-285.795 1684.39,-294.774"/>
<polygon fill="black" stroke="black" points="1681.45,-296.692 1689.38,-303.725 1687.57,-293.286 1681.45,-296.692"/>
</g>
<!-- aspnetcore&#45;tooling&#45;&gt;aspnetcore -->
<g id="edge12" class="edge"><title>aspnetcore&#45;tooling&#45;&gt;aspnetcore</title>
<path fill="none" stroke="black" d="M1697.02,-340.303C1696.14,-348.017 1695.08,-357.288 1694.1,-365.888"/>
<polygon fill="black" stroke="black" points="1690.61,-365.563 1692.95,-375.896 1697.57,-366.358 1690.61,-365.563"/>
</g>
<!-- aspnetcore&#45;tooling&#45;&gt;toolset -->
<g id="edge84" class="edge"><title>aspnetcore&#45;tooling&#45;&gt;toolset</title>
<path fill="none" stroke="black" d="M1677.76,-339.569C1664.53,-349.949 1647.19,-363.654 1632,-376 1569.55,-426.742 1566.34,-458.902 1493,-492 1411.35,-528.845 1305.29,-536.39 1245.75,-537.445"/>
<polygon fill="black" stroke="black" points="1245.5,-533.948 1235.55,-537.57 1245.59,-540.947 1245.5,-533.948"/>
</g>
<!-- websdk&#45;&gt;cli -->
<g id="edge29" class="edge"><title>websdk&#45;&gt;cli</title>
<path fill="none" stroke="black" d="M1584.95,-466C1461.03,-466 1337.11,-466 1213.19,-466"/>
<polygon fill="black" stroke="black" points="1213.13,-462.5 1203.13,-466 1213.12,-469.5 1213.13,-462.5"/>
</g>
<!-- websdk&#45;&gt;toolset -->
<g id="edge91" class="edge"><title>websdk&#45;&gt;toolset</title>
<path fill="none" stroke="black" d="M1592.39,-476.573C1574.5,-481.717 1551.65,-487.838 1531,-492 1429.49,-512.458 1308.55,-526.27 1244.67,-532.754"/>
<polygon fill="black" stroke="black" points="1244.15,-529.289 1234.55,-533.769 1244.85,-536.254 1244.15,-529.289"/>
</g>
<!-- cli&#45;&gt;toolset -->
<g id="edge85" class="edge"><title>cli&#45;&gt;toolset</title>
<path fill="none" stroke="black" d="M1181.81,-483.945C1184.55,-491.941 1187.89,-501.669 1190.95,-510.6"/>
<polygon fill="black" stroke="black" points="1187.69,-511.887 1194.24,-520.211 1194.31,-509.616 1187.69,-511.887"/>
</g>
<!-- toolset&#45;&gt;core&#45;sdk -->
<g id="edge36" class="edge"><title>toolset&#45;&gt;core&#45;sdk</title>
<path fill="none" stroke="black" d="M1198.02,-556.303C1197.14,-564.017 1196.08,-573.288 1195.1,-581.888"/>
<polygon fill="black" stroke="black" points="1191.61,-581.563 1193.95,-591.896 1198.57,-582.358 1191.61,-581.563"/>
</g>
</g>
</svg>
